<svg width="36" height="20" fill="none" xmlns="http://www.w3.org/2000/svg"><path fill-rule="evenodd" clip-rule="evenodd" d="M23.67 17.337a2.654 2.654 0 01-1.634-.561 2.636 2.636 0 01-.459-3.713l4.73-6.023a2.668 2.668 0 013.733-.456 2.636 2.636 0 01.458 3.713l-4.73 6.023a2.66 2.66 0 01-2.097 1.017z" fill="#8ED2FF"/><mask id="a" maskUnits="userSpaceOnUse" x="16" y="0" width="11" height="12"><path fill-rule="evenodd" clip-rule="evenodd" d="M16.283 0H26.33v11.313H16.283V0z" fill="#fff"/></mask><g mask="url(#a)"><path fill-rule="evenodd" clip-rule="evenodd" d="M18.94 11.313c-.573 0-1.15-.183-1.635-.56a2.636 2.636 0 01-.459-3.713l4.731-6.023A2.668 2.668 0 0125.31.56a2.636 2.636 0 01.458 3.712l-4.73 6.024a2.66 2.66 0 01-2.097 1.016z" fill="#8ED2FF"/></g><mask id="b" maskUnits="userSpaceOnUse" x="6" y="0" width="11" height="12"><path fill-rule="evenodd" clip-rule="evenodd" d="M6.597 0H16.87v11.601H6.597V0z" fill="#fff"/></mask><g mask="url(#b)"><path fill-rule="evenodd" clip-rule="evenodd" d="M9.254 11.601c-.573 0-1.15-.183-1.635-.56a2.636 2.636 0 01-.458-3.713l4.956-6.311A2.668 2.668 0 0115.85.56a2.635 2.635 0 01.458 3.712l-4.956 6.312A2.66 2.66 0 019.254 11.6z" fill="#296AEF"/></g><mask id="c" maskUnits="userSpaceOnUse" x="9" y="6" width="13" height="14"><path fill-rule="evenodd" clip-rule="evenodd" d="M9.462 6.023h12.14V20H9.462V6.023z" fill="#fff"/></mask><g mask="url(#c)"><path fill-rule="evenodd" clip-rule="evenodd" d="M12.119 20a2.656 2.656 0 01-1.635-.56 2.636 2.636 0 01-.459-3.713l6.823-8.687a2.668 2.668 0 013.732-.456 2.636 2.636 0 01.458 3.713l-6.822 8.686A2.66 2.66 0 0112.119 20z" fill="#296AEF"/></g><mask id="d" maskUnits="userSpaceOnUse" x="18" y="12" width="9" height="8"><path fill-rule="evenodd" clip-rule="evenodd" d="M18.922 12.047h7.41V20h-7.41v-7.953z" fill="#fff"/></mask><g mask="url(#d)"><path fill-rule="evenodd" clip-rule="evenodd" d="M21.579 20a2.656 2.656 0 01-1.635-.56 2.635 2.635 0 01-.458-3.713l2.092-2.664a2.668 2.668 0 013.732-.456 2.636 2.636 0 01.458 3.713l-2.092 2.663A2.66 2.66 0 0121.579 20z" fill="#296AEF"/></g><mask id="e" maskUnits="userSpaceOnUse" x="0" y="12" width="8" height="8"><path fill-rule="evenodd" clip-rule="evenodd" d="M0 12.047h7.41V20H0v-7.953z" fill="#fff"/></mask><g mask="url(#e)"><path fill-rule="evenodd" clip-rule="evenodd" d="M2.657 20c-.572 0-1.15-.183-1.635-.56a2.636 2.636 0 01-.458-3.713l2.092-2.664a2.668 2.668 0 013.731-.456 2.636 2.636 0 01.459 3.713l-2.092 2.663A2.66 2.66 0 012.657 20z" fill="#FFA600"/></g><mask id="f" maskUnits="userSpaceOnUse" x="28" y="12" width="8" height="8"><path fill-rule="evenodd" clip-rule="evenodd" d="M28.382 12.047h7.41V20h-7.41v-7.953z" fill="#fff"/></mask><g mask="url(#f)"><path fill-rule="evenodd" clip-rule="evenodd" d="M31.04 20a2.656 2.656 0 01-1.636-.56 2.635 2.635 0 01-.458-3.713l2.092-2.664a2.668 2.668 0 013.732-.456 2.636 2.636 0 01.458 3.713l-2.092 2.663A2.66 2.66 0 0131.04 20z" fill="#8ED2FF"/></g></svg>