<svg width="17" height="16" viewBox="0 0 17 16" fill="none" xmlns="http://www.w3.org/2000/svg">
  <path fill-rule="evenodd" clip-rule="evenodd" d="M6.6848 7.29664L12.5674 1.41406L13.9816 2.82828L8.09902 8.71086L6.18661 9.20905L6.6848 7.29664ZM14.6887 3.53538L8.61401 9.61007L5.89782 10.3177L5.86949 10.325L5.46537 10.4303L5.11911 10.5205C4.97131 10.559 4.83665 10.4243 4.87515 10.2766L4.96535 9.93029L5.07063 9.52617L5.078 9.49784L5.78559 6.78165L11.8603 0.706956C12.2508 0.316431 12.884 0.316431 13.2745 0.706956L14.6887 2.12117C15.0792 2.51169 15.0792 3.14486 14.6887 3.53538ZM1.875 1.49985C1.875 0.947564 2.32272 0.499849 2.875 0.499849H7.375C7.65114 0.499849 7.875 0.723707 7.875 0.999849C7.875 1.27599 7.65114 1.49985 7.375 1.49985H2.875V14.4998H13.875V9.16652C13.875 8.89037 14.0989 8.66652 14.375 8.66652C14.6511 8.66652 14.875 8.89037 14.875 9.16652V14.4998C14.875 15.0521 14.4273 15.4998 13.875 15.4998H2.875C2.32271 15.4998 1.875 15.0521 1.875 14.4998V1.49985ZM7.875 11.9998C7.875 11.7237 8.09886 11.4998 8.375 11.4998H11.875C12.1511 11.4998 12.375 11.7237 12.375 11.9998C12.375 12.276 12.1511 12.4998 11.875 12.4998H8.375C8.09886 12.4998 7.875 12.276 7.875 11.9998Z" fill="#313233" fill-opacity="0.85"/>
</svg>
