<svg width="16" height="16" viewBox="0 0 16 16" fill="none" xmlns="http://www.w3.org/2000/svg">
    <path d="M10 12H6C5.72386 12 5.5 12.2239 5.5 12.5C5.5 12.7761 5.72386 13 6 13H10C10.2761 13 10.5 12.7761 10.5 12.5C10.5 12.2239 10.2761 12 10 12Z" fill="#464749" style="fill:#464749;fill:color(display-p3 0.2745 0.2784 0.2863);fill-opacity:1;"/>
    <path fill-rule="evenodd" clip-rule="evenodd" d="M12 2H4V14H12V2ZM4 1C3.44772 1 3 1.44772 3 2V14C3 14.5523 3.44772 15 4 15H12C12.5523 15 13 14.5523 13 14V2C13 1.44772 12.5523 1 12 1H4Z" fill="#464749" style="fill:#464749;fill:color(display-p3 0.2745 0.2784 0.2863);fill-opacity:1;"/>
    </svg>
    