<svg width="16" height="16" viewBox="0 0 16 16" fill="none" xmlns="http://www.w3.org/2000/svg">
    <path fill-rule="evenodd" clip-rule="evenodd" d="M8 14C11.3137 14 14 11.3137 14 8C14 4.68629 11.3137 2 8 2C4.68629 2 2 4.68629 2 8C2 11.3137 4.68629 14 8 14ZM8 15C11.866 15 15 11.866 15 8C15 4.13401 11.866 1 8 1C4.13401 1 1 4.13401 1 8C1 11.866 4.13401 15 8 15Z" fill="#464749" style="fill:#464749;fill:color(display-p3 0.2745 0.2784 0.2863);fill-opacity:1;"/>
    <path fill-rule="evenodd" clip-rule="evenodd" d="M7.8447 9.74536C8.16391 9.74536 8.42512 9.4859 8.42512 9.16669C8.42512 9.0161 8.57364 8.89634 9.1127 8.46167C9.14163 8.43834 9.17168 8.4141 9.2029 8.38891C9.26299 8.34042 9.32361 8.29296 9.38397 8.24572C9.88611 7.85264 10.3696 7.47418 10.3696 6.6389C10.3696 5.95056 10.1199 5.41156 9.68591 5.06078C9.24413 4.703 8.7339 4.5 8.03623 4.5C7.21256 4.5 6.57945 4.77222 6.14156 5.23034C5.68932 5.70285 5.69563 6.20488 5.70156 6.67547C5.70265 6.76266 5.77357 6.83334 5.86077 6.83334H6.65256C6.7724 6.83334 6.86956 6.73619 6.86956 6.61634C6.86956 6.39701 6.91311 6.06567 7.25845 5.83856C7.42489 5.72889 7.72901 5.66978 8.03701 5.66667C8.33334 5.66356 8.63201 5.71334 8.81401 5.83856C9.17957 6.09134 9.2029 6.36279 9.2029 6.6389C9.2029 6.94068 8.94157 7.23235 8.42512 7.61112C8.31801 7.6897 8.21837 7.7616 8.12615 7.82814C7.54468 8.24769 7.25845 8.45422 7.25845 8.7778V9.16243C7.25845 9.48437 7.52276 9.74536 7.8447 9.74536ZM8.52262 10.9167C8.52262 11.2389 8.26145 11.5 7.93928 11.5H7.74484C7.42267 11.5 7.1615 11.2389 7.1615 10.9167C7.1615 10.5945 7.42267 10.3334 7.74484 10.3334H7.93928C8.26145 10.3334 8.52262 10.5945 8.52262 10.9167Z" fill="#464749" style="fill:#464749;fill:color(display-p3 0.2745 0.2784 0.2863);fill-opacity:1;"/>
    </svg>
    