<svg xmlns="http://www.w3.org/2000/svg" width="16" height="16" viewBox="0 0 16 16" fill="none">
  <path d="M9.5 5.5L10.833 6.833" stroke="#626366" stroke-linecap="square"/>
  <path d="M10.646 3.06103L3.646 10.061C3.55253 10.1547 3.50003 10.2817 3.5 10.414V12.5H5.586C5.71835 12.5 5.84529 12.4475 5.939 12.354L12.939 5.35403C12.9856 5.30759 13.0225 5.25241 13.0477 5.19166C13.0729 5.13092 13.0859 5.0658 13.0859 5.00003C13.0859 4.93426 13.0729 4.86914 13.0477 4.8084C13.0225 4.74765 12.9856 4.69248 12.939 4.64603L11.354 3.06103C11.3076 3.01447 11.2524 2.97753 11.1916 2.95232C11.1309 2.92711 11.0658 2.91414 11 2.91414C10.9342 2.91414 10.8691 2.92711 10.8084 2.95232C10.7476 2.97753 10.6924 3.01447 10.646 3.06103ZM10.646 3.06103L10.293 2.70703" stroke="#626366"/>
</svg>