<svg width="16" height="16" viewBox="0 0 16 16" fill="none" xmlns="http://www.w3.org/2000/svg">
    <path d="M6 14.5C6 14.2239 6.22386 14 6.5 14H9.5C9.77614 14 10 14.2239 10 14.5C10 14.7761 9.77614 15 9.5 15H6.5C6.22386 15 6 14.7761 6 14.5Z" fill="#464749" style="fill:#464749;fill:color(display-p3 0.2745 0.2784 0.2863);fill-opacity:1;"/>
    <path fill-rule="evenodd" clip-rule="evenodd" d="M7.27642 1.55198C7.36328 1.23385 7.65433 1 8 1C8.34567 1 8.63672 1.23385 8.72358 1.55197C11.1421 1.90254 13 3.9843 13 6.5V10L13.7807 12.3419C13.8886 12.6657 13.6476 13 13.3063 13H2.69374C2.35246 13 2.11148 12.6657 2.2194 12.3419L3.00003 10V6.5C3.00003 3.98432 4.8579 1.90258 7.27642 1.55198ZM12 6.5V10.1623L12.6126 12H3.38746L4.00003 10.1623V6.5C4.00003 4.29086 5.79089 2.5 8.00003 2.5C10.2092 2.5 12 4.29086 12 6.5Z" fill="#464749" style="fill:#464749;fill:color(display-p3 0.2745 0.2784 0.2863);fill-opacity:1;"/>
    </svg>
    