<svg width="16" height="16" viewBox="0 0 16 16" fill="none" xmlns="http://www.w3.org/2000/svg">
    <path fill-rule="evenodd" clip-rule="evenodd" d="M1.76051 7.53004C2.02006 7.62432 2.15404 7.91115 2.05977 8.1707C2.01949 8.28158 2 8.39103 2 8.50012C2 9.01592 2.47405 9.64159 3.61342 10.1674C4.71029 10.6737 6.26071 11.0001 8 11.0001C9.73929 11.0001 11.2897 10.6737 12.3866 10.1674C13.526 9.64159 14 9.01592 14 8.50012C14 8.39103 13.9805 8.28158 13.9402 8.1707C13.846 7.91115 13.9799 7.62432 14.2395 7.53004C14.499 7.43577 14.7859 7.56975 14.8801 7.8293C14.9581 8.04381 15 8.26858 15 8.50012C15 9.64112 14.0189 10.5155 12.8056 11.0754C11.5499 11.655 9.85034 12.0001 8 12.0001C6.14966 12.0001 4.45008 11.655 3.19436 11.0754C1.98114 10.5155 1 9.64112 1 8.50012C1 8.26858 1.04193 8.04381 1.11985 7.8293C1.21413 7.56975 1.50096 7.43577 1.76051 7.53004Z" fill="#464749" style="fill:#464749;fill:color(display-p3 0.2745 0.2784 0.2863);fill-opacity:1;"/>
    <path fill-rule="evenodd" clip-rule="evenodd" d="M3.16676 2.08489C4.47435 1.3808 6.2133 1 8 1C9.7867 1 11.5257 1.3808 12.8332 2.08489C14.1263 2.78116 15 3.80587 15 5C15 6.19413 14.1263 7.21884 12.8332 7.91511C11.5257 8.6192 9.7867 9 8 9C6.2133 9 4.47435 8.6192 3.16676 7.91511C1.87368 7.21884 1 6.19413 1 5C1 3.80587 1.87368 2.78116 3.16676 2.08489ZM8 2C6.33888 2 4.77124 2.35669 3.64086 2.96536C2.49596 3.58185 2 4.33762 2 5C2 5.66238 2.49596 6.41815 3.64086 7.03464C4.77124 7.64331 6.33888 8 8 8C9.66112 8 11.2288 7.64331 12.3591 7.03464C13.504 6.41815 14 5.66238 14 5C14 4.33762 13.504 3.58185 12.3591 2.96536C11.2288 2.35669 9.66112 2 8 2Z" fill="#464749" style="fill:#464749;fill:color(display-p3 0.2745 0.2784 0.2863);fill-opacity:1;"/>
    <path fill-rule="evenodd" clip-rule="evenodd" d="M1.76051 10.8731C2.02006 10.9673 2.15404 11.2542 2.05977 11.5137C2.01949 11.6246 2 11.734 2 11.8431C2 12.3589 2.47405 12.9846 3.61342 13.5105C4.71029 14.0167 6.26071 14.3431 8 14.3431C9.73929 14.3431 11.2897 14.0167 12.3866 13.5105C13.526 12.9846 14 12.3589 14 11.8431C14 11.734 13.9805 11.6246 13.9402 11.5137C13.846 11.2542 13.9799 10.9673 14.2395 10.8731C14.499 10.7788 14.7859 10.9128 14.8801 11.1723C14.9581 11.3868 15 11.6116 15 11.8431C15 12.9841 14.0189 13.8585 12.8056 14.4184C11.5499 14.998 9.85034 15.3431 8 15.3431C6.14966 15.3431 4.45008 14.998 3.19436 14.4184C1.98114 13.8585 1 12.9841 1 11.8431C1 11.6116 1.04193 11.3868 1.11985 11.1723C1.21413 10.9128 1.50096 10.7788 1.76051 10.8731Z" fill="#464749" style="fill:#464749;fill:color(display-p3 0.2745 0.2784 0.2863);fill-opacity:1;"/>
    </svg>
    