<svg width="44" height="14" viewBox="0 0 44 14" fill="none" xmlns="http://www.w3.org/2000/svg">
<g clip-path="url(#clip0_13157_23664)">
<path d="M8.60352 0.714844C9.21088 0.715038 9.74428 1.11924 9.9082 1.7041L13.2031 13.4619H9.46875L8.74023 10.5703H4.80859L3.79199 13.4619H0.0576172L4.90039 0.714844H8.60352ZM15.5713 0.714844C16.346 0.714844 16.9631 1.36297 16.9248 2.13672L16.3604 13.4619H14.2549L13.3428 10.207C13.185 9.64397 13.1193 9.05864 13.1484 8.47461L13.5352 0.714844H15.5713ZM21.7363 0.677734C22.3213 0.677937 22.8406 1.05366 23.0234 1.60938L25.0928 7.89746H25.2422L28.3398 0.677734H31.2227C31.9974 0.677734 32.6145 1.32586 32.5762 2.09961L32.0117 13.4248H28.626L28.9873 6.05566H28.8877L25.9199 13.3252H23.8789L21.6338 6.00586H21.5342L21.1602 13.4248H17.7744L18.4092 0.677734H21.7363ZM38.0908 0.381836C38.2357 -0.0782027 38.8888 -0.0782396 39.0029 0.381836L39.4102 2.0293C39.713 3.25271 40.5768 4.24509 41.7441 4.71094L42.6914 5.08887C43.0857 5.2465 43.067 5.81218 42.6621 5.96973L41.6895 6.34766C40.491 6.81357 39.5611 7.8058 39.1768 9.0293L38.6592 10.6758C38.5145 11.1362 37.862 11.1363 37.748 10.6758L37.3398 9.0293C37.0371 7.80575 36.1733 6.81354 35.0059 6.34766L34.0596 5.96973C33.6649 5.81223 33.6837 5.24636 34.0889 5.08887L35.0605 4.71094C36.259 4.24509 37.1888 3.25268 37.5732 2.0293L38.0908 0.381836ZM5.71973 7.98145H8.08789L7.14062 4.22461H7.04102L5.71973 7.98145Z" fill="url(#paint0_radial_13157_23664)"/>
<path d="M8.60352 0.714844C9.21088 0.715038 9.74428 1.11924 9.9082 1.7041L13.2031 13.4619H9.46875L8.74023 10.5703H4.80859L3.79199 13.4619H0.0576172L4.90039 0.714844H8.60352ZM15.5713 0.714844C16.346 0.714844 16.9631 1.36297 16.9248 2.13672L16.3604 13.4619H14.2549L13.3428 10.207C13.185 9.64397 13.1193 9.05864 13.1484 8.47461L13.5352 0.714844H15.5713ZM21.7363 0.677734C22.3213 0.677937 22.8406 1.05366 23.0234 1.60938L25.0928 7.89746H25.2422L28.3398 0.677734H31.2227C31.9974 0.677734 32.6145 1.32586 32.5762 2.09961L32.0117 13.4248H28.626L28.9873 6.05566H28.8877L25.9199 13.3252H23.8789L21.6338 6.00586H21.5342L21.1602 13.4248H17.7744L18.4092 0.677734H21.7363ZM38.0908 0.381836C38.2357 -0.0782027 38.8888 -0.0782396 39.0029 0.381836L39.4102 2.0293C39.713 3.25271 40.5768 4.24509 41.7441 4.71094L42.6914 5.08887C43.0857 5.2465 43.067 5.81218 42.6621 5.96973L41.6895 6.34766C40.491 6.81357 39.5611 7.8058 39.1768 9.0293L38.6592 10.6758C38.5145 11.1362 37.862 11.1363 37.748 10.6758L37.3398 9.0293C37.0371 7.80575 36.1733 6.81354 35.0059 6.34766L34.0596 5.96973C33.6649 5.81223 33.6837 5.24636 34.0889 5.08887L35.0605 4.71094C36.259 4.24509 37.1888 3.25268 37.5732 2.0293L38.0908 0.381836ZM5.71973 7.98145H8.08789L7.14062 4.22461H7.04102L5.71973 7.98145Z" fill="url(#paint1_linear_13157_23664)"/>
<path d="M8.60352 0.714844C9.21088 0.715038 9.74428 1.11924 9.9082 1.7041L13.2031 13.4619H9.46875L8.74023 10.5703H4.80859L3.79199 13.4619H0.0576172L4.90039 0.714844H8.60352ZM15.5713 0.714844C16.346 0.714844 16.9631 1.36297 16.9248 2.13672L16.3604 13.4619H14.2549L13.3428 10.207C13.185 9.64397 13.1193 9.05864 13.1484 8.47461L13.5352 0.714844H15.5713ZM21.7363 0.677734C22.3213 0.677937 22.8406 1.05366 23.0234 1.60938L25.0928 7.89746H25.2422L28.3398 0.677734H31.2227C31.9974 0.677734 32.6145 1.32586 32.5762 2.09961L32.0117 13.4248H28.626L28.9873 6.05566H28.8877L25.9199 13.3252H23.8789L21.6338 6.00586H21.5342L21.1602 13.4248H17.7744L18.4092 0.677734H21.7363ZM38.0908 0.381836C38.2357 -0.0782027 38.8888 -0.0782396 39.0029 0.381836L39.4102 2.0293C39.713 3.25271 40.5768 4.24509 41.7441 4.71094L42.6914 5.08887C43.0857 5.2465 43.067 5.81218 42.6621 5.96973L41.6895 6.34766C40.491 6.81357 39.5611 7.8058 39.1768 9.0293L38.6592 10.6758C38.5145 11.1362 37.862 11.1363 37.748 10.6758L37.3398 9.0293C37.0371 7.80575 36.1733 6.81354 35.0059 6.34766L34.0596 5.96973C33.6649 5.81223 33.6837 5.24636 34.0889 5.08887L35.0605 4.71094C36.259 4.24509 37.1888 3.25268 37.5732 2.0293L38.0908 0.381836ZM5.71973 7.98145H8.08789L7.14062 4.22461H7.04102L5.71973 7.98145Z" fill="#8690BB"/>
</g>
<defs>
<radialGradient id="paint0_radial_13157_23664" cx="0" cy="0" r="1" gradientTransform="matrix(-29.0016 12.2639 -5.94708 -14.0586 29.0718 1.1819)" gradientUnits="userSpaceOnUse">
<stop stop-color="white"/>
<stop offset="1" stop-color="white" stop-opacity="0.8"/>
</radialGradient>
<linearGradient id="paint1_linear_13157_23664" x1="0.0576172" y1="6.74936" x2="42.9767" y2="6.74936" gradientUnits="userSpaceOnUse">
<stop stop-color="#354CA6"/>
<stop offset="1" stop-color="#7590F9"/>
</linearGradient>
<clipPath id="clip0_13157_23664">
<rect width="43.225" height="14" fill="white"/>
</clipPath>
</defs>
</svg>
