<svg width="52" height="52" viewBox="0 0 52 52" fill="none" xmlns="http://www.w3.org/2000/svg">
<rect width="52" height="52" rx="26" fill="#E5F2FF"/>
<mask id="mask0_20000871_113" style="mask-type:luminance" maskUnits="userSpaceOnUse" x="0" y="0" width="52" height="52">
<rect width="52" height="52" rx="26" fill="white"/>
</mask>
<g mask="url(#mask0_20000871_113)">
<path fill-rule="evenodd" clip-rule="evenodd" d="M5 20C5 16.134 8.13401 13 12 13H38C40.2091 13 42 14.7909 42 17V43C42 45.2091 40.2091 47 38 47H9C6.79086 47 5 45.2091 5 43V20Z" fill="url(#paint0_linear_20000871_113)"/>
<path d="M5 18C5 15.2386 7.23858 13 10 13H41.2745C41.6752 13 42 13.3248 42 13.7255V23H10C7.23858 23 5 20.7614 5 18V18Z" fill="#3276FF"/>
<path fill-rule="evenodd" clip-rule="evenodd" d="M5 25C5 23.8954 5.89543 23 7 23H45C46.1046 23 47 23.8954 47 25V50C47 51.1046 46.1046 52 45 52H7C5.89543 52 5 51.1046 5 50V25Z" fill="url(#paint1_linear_20000871_113)"/>
<path fill-rule="evenodd" clip-rule="evenodd" d="M38 40.5C38 38.567 39.567 37 41.5 37H47V44H41.5C39.567 44 38 42.433 38 40.5V40.5Z" fill="#FFD980"/>
<rect x="14" y="33" width="10" height="2" rx="1" fill="white"/>
<rect x="14" y="37" width="10" height="2" rx="1" fill="white"/>
<rect x="18" y="32" width="2" height="10" rx="1" fill="white"/>
<path d="M15 29L19 33" stroke="white" stroke-width="2" stroke-linecap="round" stroke-linejoin="round"/>
<path d="M23.0448 29L19 33" stroke="white" stroke-width="2" stroke-linecap="round" stroke-linejoin="round"/>
</g>
<circle opacity="0.498675" cx="46" cy="9" r="4" fill="#FFD980"/>
<defs>
<linearGradient id="paint0_linear_20000871_113" x1="5" y1="13" x2="5" y2="47" gradientUnits="userSpaceOnUse">
<stop stop-color="#BAD1FF"/>
<stop offset="1" stop-color="#AAC5FA"/>
</linearGradient>
<linearGradient id="paint1_linear_20000871_113" x1="5" y1="23" x2="5" y2="52" gradientUnits="userSpaceOnUse">
<stop stop-color="#BAD1FF"/>
<stop offset="1" stop-color="#AAC5FA"/>
</linearGradient>
</defs>
</svg>
