<svg width="55" height="52" viewBox="0 0 55 52" fill="none" xmlns="http://www.w3.org/2000/svg">
<rect opacity="0.4" x="0.666992" width="52" height="52" rx="26" fill="#BFDFFF"/>
<mask id="mask0_20000871_115" style="mask-type:luminance" maskUnits="userSpaceOnUse" x="0" y="0" width="53" height="52">
<rect x="0.666992" width="52" height="52" rx="26" fill="white"/>
</mask>
<g mask="url(#mask0_20000871_115)">
<path fill-rule="evenodd" clip-rule="evenodd" d="M14.667 18C14.667 14.6863 17.3533 12 20.667 12H41.667C43.3238 12 44.667 13.3431 44.667 15V34C44.667 37.866 41.533 41 37.667 41H21.667C17.801 41 14.667 37.866 14.667 34L14.667 18Z" fill="url(#paint0_linear_20000871_115)"/>
<path d="M38.667 15C38.667 13.3431 40.0101 12 41.667 12V12C43.3238 12 44.667 13.3431 44.667 15V40.4314C44.667 40.7454 44.4124 41 44.0984 41H38.667V15Z" fill="#3276FF"/>
<path fill-rule="evenodd" clip-rule="evenodd" d="M8.66699 18C8.66699 14.6863 11.3533 12 14.667 12H38.667V48C38.667 51.866 35.533 55 31.667 55H15.667C11.801 55 8.66699 51.866 8.66699 48L8.66699 18Z" fill="url(#paint1_linear_20000871_115)"/>
</g>
<rect x="14.667" y="20" width="18" height="3" rx="1.5" fill="#FFD980"/>
<rect x="14.667" y="27" width="18" height="3" rx="1.5" fill="white"/>
<rect x="14.667" y="34" width="12" height="3" rx="1.5" fill="white"/>
<circle opacity="0.499186" cx="50.667" cy="39" r="4" fill="#FFD980"/>
<defs>
<linearGradient id="paint0_linear_20000871_115" x1="14.667" y1="12" x2="14.667" y2="41" gradientUnits="userSpaceOnUse">
<stop stop-color="#BAD1FF"/>
<stop offset="1" stop-color="#AAC5FA"/>
</linearGradient>
<linearGradient id="paint1_linear_20000871_115" x1="8.66699" y1="12" x2="8.66699" y2="55" gradientUnits="userSpaceOnUse">
<stop stop-color="#BAD1FF"/>
<stop offset="1" stop-color="#AAC5FA"/>
</linearGradient>
</defs>
</svg>
