<svg width="53" height="52" viewBox="0 0 53 52" fill="none" xmlns="http://www.w3.org/2000/svg">
<rect x="0.333008" width="52" height="52" rx="26" fill="#E5F2FF"/>
<mask id="mask0_20000871_114" style="mask-type:luminance" maskUnits="userSpaceOnUse" x="0" y="0" width="53" height="52">
<rect x="0.333008" width="52" height="52" rx="26" fill="white"/>
</mask>
<g mask="url(#mask0_20000871_114)">
<path fill-rule="evenodd" clip-rule="evenodd" d="M5.33301 26C5.33301 22.134 8.46701 19 12.333 19H38.333C40.5421 19 42.333 20.7909 42.333 23V49C42.333 51.2091 40.5421 53 38.333 53H9.33301C7.12387 53 5.33301 51.2091 5.33301 49V26Z" fill="url(#paint0_linear_20000871_114)"/>
<path d="M5.33301 24C5.33301 21.2386 7.57158 19 10.333 19H41.6075C42.0082 19 42.333 19.3248 42.333 19.7255V29H10.333C7.57158 29 5.33301 26.7614 5.33301 24V24Z" fill="#3276FF"/>
<path fill-rule="evenodd" clip-rule="evenodd" d="M14.333 15C14.333 12.7909 16.1239 11 18.333 11H40.333C42.5421 11 44.333 12.7909 44.333 15V36C44.333 38.2091 42.5421 40 40.333 40H18.333C16.1239 40 14.333 38.2091 14.333 36V15Z" fill="white"/>
<path fill-rule="evenodd" clip-rule="evenodd" d="M5.33301 31C5.33301 29.8954 6.22844 29 7.33301 29H45.333C46.4376 29 47.333 29.8954 47.333 31V56C47.333 57.1046 46.4376 58 45.333 58H7.33301C6.22844 58 5.33301 57.1046 5.33301 56V31Z" fill="url(#paint1_linear_20000871_114)"/>
<path fill-rule="evenodd" clip-rule="evenodd" d="M38.333 43.5C38.333 41.567 39.9 40 41.833 40H45.833C47.766 40 49.333 41.567 49.333 43.5V43.5C49.333 45.433 47.766 47 45.833 47H41.833C39.9 47 38.333 45.433 38.333 43.5V43.5Z" fill="#FFD980"/>
<path fill-rule="evenodd" clip-rule="evenodd" d="M25.6259 15.2929C25.9864 14.9324 26.5536 14.9047 26.9459 15.2097L29.3317 17.5871L29.3317 17.587L26.9459 15.2097L27.0401 15.2929L29.333 17.5858L31.6259 15.2929L31.7201 15.2097C32.1124 14.9047 32.6796 14.9324 33.0401 15.2929C33.4306 15.6834 33.4306 16.3166 33.0401 16.7071L30.7472 19H32.333C32.8853 19 33.333 19.4477 33.333 20C33.333 20.5523 32.8853 21 32.333 21H30.333V22H32.333C32.8853 22 33.333 22.4477 33.333 23C33.333 23.5523 32.8853 24 32.333 24H30.333V25C30.333 25.5523 29.8853 26 29.333 26C28.7807 26 28.333 25.5523 28.333 25V24H26.333C25.7807 24 25.333 23.5523 25.333 23C25.333 22.4477 25.7807 22 26.333 22H28.333V21H26.333C25.7807 21 25.333 20.5523 25.333 20C25.333 19.4477 25.7807 19 26.333 19H27.9188L25.6259 16.7071C25.2354 16.3166 25.2354 15.6834 25.6259 15.2929Z" fill="url(#paint2_linear_20000871_114)"/>
</g>
<circle opacity="0.498675" cx="46.333" cy="9" r="4" fill="#FFD980"/>
<defs>
<linearGradient id="paint0_linear_20000871_114" x1="5.33301" y1="19" x2="5.33301" y2="53" gradientUnits="userSpaceOnUse">
<stop stop-color="#BAD1FF"/>
<stop offset="1" stop-color="#AAC5FA"/>
</linearGradient>
<linearGradient id="paint1_linear_20000871_114" x1="5.33301" y1="29" x2="5.33301" y2="58" gradientUnits="userSpaceOnUse">
<stop stop-color="#BAD1FF"/>
<stop offset="1" stop-color="#AAC5FA"/>
</linearGradient>
<linearGradient id="paint2_linear_20000871_114" x1="25.333" y1="15" x2="25.333" y2="26" gradientUnits="userSpaceOnUse">
<stop stop-color="#BAD1FF"/>
<stop offset="1" stop-color="#AAC5FA"/>
</linearGradient>
</defs>
</svg>
