<svg width="16" height="16" viewBox="0 0 16 16" fill="none" xmlns="http://www.w3.org/2000/svg"><path fill-rule="evenodd" clip-rule="evenodd" d="M11.997 3v.467a.5.5 0 11-1 0V3h-6v.467a.5.5 0 11-1 0V3H2.005l.003 2H14l-.003-2h-2zm0-1H14c.547 0 .997.444.997.993L15 14.007a.998.998 0 01-.997.993H2.005a.997.997 0 01-.997-.993L1.005 2.993C1.005 2.449 1.45 2 2 2h1.996v-.75a.5.5 0 011 0V2h6v-.75a.5.5 0 011 0V2zM14 6H2.008v8H14V6zM4.235 9a.5.5 0 010-1h7.544a.5.5 0 010 1H4.235zm0 3a.5.5 0 010-1h7.544a.5.5 0 010 1H4.235z" fill="#626366"/></svg>