<svg width="16" height="16" viewBox="0 0 32 32" fill="none" xmlns="http://www.w3.org/2000/svg">
  <path d="M30 5C30 4.44772 29.5523 4 29 4H3C2.44772 4 2 4.44772 2 5C2 5.55228 2.44772 6 3 6H29C29.5523 6 30 5.55228 30 5Z" fill="#6C778E"/>
  <path d="M30 27C30 26.4477 29.5523 26 29 26H3C2.44772 26 2 26.4477 2 27C2 27.5523 2.44772 28 3 28H29C29.5523 28 30 27.5523 30 27Z" fill="#6C778E"/>
  <path d="M18 16C18 15.4477 17.5523 15 17 15H3C2.44772 15 2 15.4477 2 16C2 16.5523 2.44772 17 3 17H17C17.5523 17 18 16.5523 18 16Z" fill="#6C778E"/>
  <path d="M29.5685 17.3711C30.1438 16.9391 30.1438 16.0609 29.5685 15.6289L23.6845 11.2118C22.9858 10.6873 22 11.197 22 12.0829V20.9171C22 21.803 22.9858 22.3127 23.6845 21.7882L29.5685 17.3711Z" fill="#6C778E"/>
</svg>
