<svg width="16" height="16" viewBox="0 0 16 16" fill="none" xmlns="http://www.w3.org/2000/svg">
<path fill-rule="evenodd" clip-rule="evenodd" d="M4.83665 2.5C5.39838 1.31753 6.60364 0.5 7.99984 0.5C9.39603 0.5 10.6013 1.31753 11.163 2.5H13C13.8284 2.5 14.5 3.17157 14.5 4V14C14.5 14.8284 13.8284 15.5 13 15.5H3C2.17157 15.5 1.5 14.8284 1.5 14V4C1.5 3.17157 2.17157 2.5 3 2.5H4.83665ZM10 2.5C9.54392 1.89278 8.81775 1.5 7.99984 1.5C7.18193 1.5 6.45576 1.89278 5.99965 2.5H10ZM4.75 5.5C4.61193 5.5 4.5 5.61193 4.5 5.75V6.5C4.5 8.433 6.067 10 8 10C9.933 10 11.5 8.433 11.5 6.5V5.75C11.5 5.61193 11.3881 5.5 11.25 5.5H10.75C10.6119 5.5 10.5 5.61193 10.5 5.75V6.5C10.5 7.88071 9.38071 9 8 9C6.61929 9 5.5 7.88071 5.5 6.5V5.75C5.5 5.61193 5.38807 5.5 5.25 5.5H4.75ZM3 3.5H13C13.2761 3.5 13.5 3.72386 13.5 4V14C13.5 14.2761 13.2761 14.5 13 14.5H3C2.72386 14.5 2.5 14.2761 2.5 14V4C2.5 3.72386 2.72386 3.5 3 3.5Z" fill="#313233" style="fill:#313233;fill:color(display-p3 0.1920 0.1947 0.2000);fill-opacity:1;"/>
</svg>
