<svg width="18" height="18" viewBox="0 0 18 18" fill="none" xmlns="http://www.w3.org/2000/svg">
<path fill-rule="evenodd" clip-rule="evenodd" d="M8.27754 1.54611C8.13191 1.18161 7.61809 1.18161 7.47246 1.54611L5.82102 5.67948C5.56942 6.30921 5.10617 6.83058 4.5117 7.15306L1.35259 8.86678C1.04914 9.03139 1.04914 9.46863 1.35259 9.63324L4.5117 11.347C5.10617 11.6694 5.56942 12.1908 5.82102 12.8205L7.47246 16.9539C7.61809 17.3184 8.13191 17.3184 8.27754 16.9539L9.92898 12.8205C10.1806 12.1908 10.6438 11.6694 11.2383 11.347L14.3974 9.63324C14.7009 9.46863 14.7009 9.03139 14.3974 8.86678L11.2383 7.15306C10.6438 6.83058 10.1806 6.30921 9.92898 5.67948L8.27754 1.54611ZM7.875 4.43763L7.16282 6.22014C6.78542 7.16473 6.09055 7.94678 5.19883 8.4305L3.68813 9.25001L5.19883 10.0695C6.09054 10.5532 6.78542 11.3353 7.16282 12.2799L7.875 14.0624L8.58718 12.2799C8.96458 11.3353 9.65946 10.5532 10.5512 10.0695L12.0619 9.25001L10.5512 8.4305C9.65946 7.94678 8.96458 7.16473 8.58718 6.22014L7.875 4.43763Z" fill="#04369A"/>
<path d="M14.4747 0.669797C14.5284 0.526734 14.7216 0.526734 14.7753 0.669797L15.3017 2.07057C15.3938 2.31555 15.5646 2.51911 15.7847 2.64603L16.7913 3.2266C16.9029 3.29096 16.9029 3.45904 16.7913 3.5234L15.7847 4.10397C15.5646 4.23089 15.3938 4.43445 15.3017 4.67943L14.7753 6.0802C14.7216 6.22327 14.5284 6.22327 14.4747 6.0802L13.9483 4.67943C13.8562 4.43445 13.6854 4.23089 13.4653 4.10397L12.4587 3.5234C12.3471 3.45904 12.3471 3.29096 12.4587 3.2266L13.4653 2.64603C13.6854 2.51911 13.8562 2.31555 13.9483 2.07057L14.4747 0.669797Z" fill="#04369A"/>
</svg>
