<svg width="17" height="16" viewBox="0 0 17 16" fill="none" xmlns="http://www.w3.org/2000/svg">
  <path d="M11.375 2.18333C10.6194 1.72778 9.78611 1.5 8.875 1.5C7.96389 1.5 7.125 1.72778 6.35833 2.18333C5.60278 2.62778 4.99722 3.23333 4.54167 4C4.09722 4.75556 3.875 5.58889 3.875 6.5C3.875 7.46667 4.11944 8.35 4.60833 9.15C5.10833 9.93889 5.775 10.5389 6.60833 10.95L6.74167 11.0167C6.83056 11.0722 6.875 11.15 6.875 11.25V14.25C6.875 14.3167 6.89722 14.3778 6.94167 14.4333C6.99722 14.4778 7.05833 14.5 7.125 14.5H10.625C10.6917 14.5 10.7472 14.4778 10.7917 14.4333C10.8472 14.3778 10.875 14.3167 10.875 14.25V11.25C10.875 11.15 10.9194 11.0722 11.0083 11.0167L11.1417 10.95C11.975 10.5389 12.6361 9.93889 13.125 9.15C13.625 8.35 13.875 7.46667 13.875 6.5C13.875 5.58889 13.6472 4.75556 13.1917 4C12.7472 3.23333 12.1417 2.62778 11.375 2.18333ZM3.69167 9.53333C3.14722 8.6 2.875 7.58889 2.875 6.5C2.875 5.41111 3.14167 4.41111 3.675 3.5C4.21944 2.57778 4.94722 1.85 5.85833 1.31667C6.78056 0.772222 7.78611 0.5 8.875 0.5C9.96389 0.5 10.9639 0.772222 11.875 1.31667C12.7972 1.85 13.525 2.57778 14.0583 3.5C14.6028 4.41111 14.875 5.41111 14.875 6.5C14.875 7.58889 14.6028 8.6 14.0583 9.53333C13.5139 10.4556 12.7861 11.1778 11.875 11.7V14.5C11.875 14.7778 11.775 15.0167 11.575 15.2167C11.3861 15.4056 11.1528 15.5 10.875 15.5H6.875C6.59722 15.5 6.35833 15.4056 6.15833 15.2167C5.96944 15.0167 5.875 14.7778 5.875 14.5V11.7C4.96389 11.1778 4.23611 10.4556 3.69167 9.53333ZM7.04167 7.98333C7.06389 7.91667 7.10278 7.86667 7.15833 7.83333L7.59167 7.56667C7.64722 7.53333 7.70833 7.52778 7.775 7.55C7.84167 7.56111 7.89167 7.59445 7.925 7.65L9.34167 10C9.36389 10.0444 9.375 10.0889 9.375 10.1333V13.25C9.375 13.3167 9.34722 13.3778 9.29167 13.4333C9.24722 13.4778 9.19167 13.5 9.125 13.5H8.625C8.55833 13.5 8.49722 13.4778 8.44167 13.4333C8.39722 13.3778 8.375 13.3167 8.375 13.25V10.4C8.36389 10.3556 8.35278 10.3167 8.34167 10.2833L7.075 8.16667C7.04167 8.11111 7.03056 8.05 7.04167 7.98333ZM9.975 7.6C10.0417 7.57778 10.1028 7.58333 10.1583 7.61667L10.5917 7.88333C10.6472 7.91667 10.6806 7.96667 10.6917 8.03333C10.7139 8.1 10.7083 8.16111 10.675 8.21667L9.425 10.25C9.39167 10.3056 9.34167 10.3444 9.275 10.3667C9.20833 10.3778 9.14722 10.3667 9.09167 10.3333L8.65833 10.0667C8.60278 10.0333 8.56389 9.98333 8.54167 9.91667C8.53056 9.85 8.54167 9.78889 8.575 9.73333L9.825 7.7C9.85833 7.64444 9.90833 7.61111 9.975 7.6Z" fill="#323F72" fill-opacity="0.85"/>
</svg>
