<svg width="16" height="16" viewBox="0 0 16 16" fill="none" xmlns="http://www.w3.org/2000/svg">
  <path fill-rule="evenodd" clip-rule="evenodd" d="M8 15A7 7 0 108 1a7 7 0 000 14zm.5-5.5c0 .41-.336.744-.747.744A.753.753 0 017 9.494V9c0-.416.369-.681 1.116-1.221L8.5 7.5c.664-.487 1-.862 1-1.25 0-.355-.03-.704-.5-1.03-.234-.16-.618-.224-1-.22-.395.004-.787.08-1 .22-.445.293-.5.719-.5 1a.279.279 0 01-.28.28H5.202a.205.205 0 01-.205-.203c-.007-.605-.015-1.25.566-1.858.563-.59 1.377-.94 2.437-.94.897 0 1.553.261 2.12.722.559.45.88 1.144.88 2.029 0 1.074-.622 1.56-1.267 2.066-.078.06-.156.122-.233.184l-.116.094c-.693.559-.884.713-.884.906zm-.625 3a.75.75 0 100-1.5h-.25a.75.75 0 100 1.5h.25z" fill="#AAB3C4"/>
</svg>
