<svg width="16" height="16" viewBox="0 0 32 32" fill="none" xmlns="http://www.w3.org/2000/svg">
  <path fill-rule="evenodd" clip-rule="evenodd" d="M20 6C20 3.79086 18.2091 2 16 2C13.7909 2 12 3.79086 12 6V22C12 24.2091 13.7909 26 16 26C18.2091 26 20 24.2091 20 22V6ZM6 8C8.20914 8 10 9.79086 10 12V22C10 24.2091 8.20914 26 6 26C3.79086 26 2 24.2091 2 22V12C2 9.79086 3.79086 8 6 8ZM29 28C29.5523 28 30 28.4477 30 29C30 29.5523 29.5523 30 29 30H3C2.44772 30 2 29.5523 2 29C2 28.4477 2.44772 28 3 28H29ZM26 12C28.2091 12 30 13.7909 30 16V22C30 24.2091 28.2091 26 26 26C23.7909 26 22 24.2091 22 22V16C22 13.7909 23.7909 12 26 12ZM4.00549 11.8507C4.08183 10.8159 4.94564 10 6 10C7.10457 10 8 10.8954 8 12V22L7.99451 22.1493C7.91817 23.1841 7.05436 24 6 24C4.89543 24 4 23.1046 4 22V12L4.00549 11.8507ZM16 4C14.9456 4 14.0818 4.81588 14.0055 5.85074L14 6V22C14 23.1046 14.8954 24 16 24C17.0544 24 17.9182 23.1841 17.9945 22.1493L18 22V6C18 4.89543 17.1046 4 16 4ZM24.0055 15.8507C24.0818 14.8159 24.9456 14 26 14C27.1046 14 28 14.8954 28 16V22L27.9945 22.1493C27.9182 23.1841 27.0544 24 26 24C24.8954 24 24 23.1046 24 22V16L24.0055 15.8507Z" fill="#313233"/>
</svg>
