<svg width="17" height="16" viewBox="0 0 17 16" fill="none" xmlns="http://www.w3.org/2000/svg">
  <path fill-rule="evenodd" clip-rule="evenodd" d="M13.0059 12.1838C13.9707 11.0594 14.5536 9.59777 14.5536 8C14.5536 4.4496 11.6754 1.57143 8.125 1.57143C4.5746 1.57143 1.69643 4.4496 1.69643 8C1.69643 9.59867 2.27998 11.061 3.24569 12.1857C3.9413 11.2114 4.92804 10.4547 6.08083 10.0391C5.19105 9.4083 4.61035 8.37021 4.61035 7.1965C4.61035 5.27336 6.16936 3.71436 8.09249 3.71436C10.0156 3.71436 11.5746 5.27336 11.5746 7.1965C11.5746 8.36025 11.0038 9.39066 10.1268 10.023C11.2983 10.4346 12.3013 11.1977 13.0059 12.1838ZM13.5698 13.1579C14.8436 11.8137 15.625 9.99811 15.625 8C15.625 3.85786 12.2671 0.5 8.125 0.5C3.98286 0.5 0.625 3.85786 0.625 8C0.625 9.99916 1.40719 11.8156 2.68221 13.1601C2.34486 13.8993 2.1571 14.7195 2.1571 15.5831C2.1571 18.3293 14.0959 18.3293 14.0959 15.5831C14.0959 14.7187 13.9078 13.8977 13.5698 13.1579ZM12.2893 12.8976C11.4025 11.5635 9.87325 10.6785 8.12649 10.6785C8.12603 10.6785 8.12557 10.6785 8.12511 10.6785C8.11425 10.6786 8.10338 10.6786 8.09249 10.6786C8.09086 10.6786 8.08923 10.6786 8.08759 10.6786C6.35634 10.6917 4.84264 11.5741 3.9626 12.8992C5.08414 13.853 6.53736 14.4286 8.125 14.4286C9.71354 14.4286 11.1675 13.8524 12.2893 12.8976ZM3.46241 13.8749C4.74255 14.8923 6.3628 15.5 8.125 15.5C9.88825 15.5 11.5094 14.8915 12.7899 13.8731C12.9893 14.4014 13.099 14.9723 13.101 15.5672C13.0891 15.5882 13.0548 15.6336 12.9668 15.703C12.7764 15.8532 12.4406 16.0228 11.9387 16.1767C10.9452 16.4814 9.55901 16.6479 8.12649 16.6479C6.69398 16.6479 5.30778 16.4814 4.31426 16.1767C3.81238 16.0228 3.47662 15.8532 3.28619 15.703C3.19814 15.6336 3.16391 15.5882 3.15203 15.5672C3.15395 14.9729 3.26339 14.4027 3.46241 13.8749ZM8.11973 9.6836C9.48085 9.669 10.5797 8.56108 10.5797 7.1965C10.5797 5.82283 9.46616 4.70925 8.09249 4.70925C6.71883 4.70925 5.60525 5.82283 5.60525 7.1965C5.60525 8.5677 6.71483 9.67974 8.08509 9.68373C8.09663 9.68366 8.10817 9.68361 8.11973 9.6836ZM13.1064 15.5536C13.107 15.5536 13.1063 15.5571 13.1026 15.5641C13.104 15.5571 13.1058 15.5536 13.1064 15.5536ZM3.14658 15.5536C3.14715 15.5536 3.14897 15.5571 3.15034 15.5641C3.1467 15.5571 3.14601 15.5536 3.14658 15.5536Z" fill="#323F72" fill-opacity="0.85"/>
</svg>
