<?xml version="1.0" encoding="UTF-8"?>
<svg width="13px" height="14px" viewBox="0 0 13 14" version="1.1" xmlns="http://www.w3.org/2000/svg" xmlns:xlink="http://www.w3.org/1999/xlink">
    <title>icon/从素材中心选择备份 2</title>
    <g id="页面-1" stroke="none" stroke-width="1" fill="none" fill-rule="evenodd">
        <g id="账户报表" transform="translate(-26.000000, -89.000000)" fill="#626366">
            <g id="左侧导航/推广分析/账户" transform="translate(0.000000, 60.000000)">
                <g id="编组-6" transform="translate(20.000000, 24.000000)">
                    <g id="编组" transform="translate(4.000000, 4.000000)">
                        <path d="M11,1 C11.5522847,1 12,1.44771525 12,2 L12,14 C12,14.5522847 11.5522847,15 11,15 L3,15 C2.44771525,15 2,14.5522847 2,14 L2,2 C2,1.44771525 2.44771525,1 3,1 L11,1 Z M10.6,2 L3.4,2 C3.1790861,2 3,2.1790861 3,2.4 L3,13.6 C3,13.8209139 3.1790861,14 3.4,14 L11,14 L11,14 L11,2.4 C11,2.1790861 10.8209139,2 10.6,2 Z" id="形状结合" fill-rule="nonzero"></path>
                        <path d="M14,7 C14.5522847,7 15,7.44771525 15,8 L15,14 C15,14.5522847 14.5522847,15 14,15 C12.3681898,15 11.3681898,15 11,15 C10.9943689,14.4222054 11,14.5522847 11,14 L11,8 C11,7.44771525 11.4477153,7 12,7 L14,7 Z M13.6,8 L12,8 L12,8 L12,14 L13.6,14 C13.8209139,14 14,13.8209139 14,13.6 L14,8.4 C14,8.1790861 13.8209139,8 13.6,8 Z" id="形状结合备份-2" fill-rule="nonzero"></path>
                        <rect id="矩形" x="4.5" y="4" width="2" height="1" rx="0.5"></rect>
                        <rect id="矩形备份-2" x="4.5" y="6" width="5" height="1" rx="0.5"></rect>
                        <rect id="矩形备份-3" x="4.5" y="8" width="5" height="1" rx="0.5"></rect>
                    </g>
                </g>
            </g>
        </g>
    </g>
</svg>