<svg width="16" height="16" viewBox="0 0 16 16" fill="none" xmlns="http://www.w3.org/2000/svg">
<path d="M4.5 5.25C4.5 5.11193 4.61193 5 4.75 5H11.25C11.3881 5 11.5 5.11193 11.5 5.25V5.75C11.5 5.88807 11.3881 6 11.25 6H8.5V10.75C8.5 10.8881 8.38807 11 8.25 11H7.75C7.61193 11 7.5 10.8881 7.5 10.75V6H4.75C4.61193 6 4.5 5.88807 4.5 5.75V5.25Z" fill="#313233"/>
<path fill-rule="evenodd" clip-rule="evenodd" d="M2.5 1.5C1.94772 1.5 1.5 1.94772 1.5 2.5V13.5C1.5 14.0523 1.94772 14.5 2.5 14.5H13.5C14.0523 14.5 14.5 14.0523 14.5 13.5V2.5C14.5 1.94772 14.0523 1.5 13.5 1.5H2.5ZM13.5 2.5H2.5L2.5 13.5H13.5V2.5Z" fill="#313233"/>
</svg>
