<svg width="16" height="16" viewBox="0 0 32 32" fill="none" xmlns="http://www.w3.org/2000/svg">
  <path fill-rule="evenodd" clip-rule="evenodd" d="M16 32C24.8366 32 32 24.8366 32 16C32 7.16344 24.8366 0 16 0C7.16344 0 0 7.16344 0 16C0 24.8366 7.16344 32 16 32ZM26.2782 11.1716C26.6687 11.5621 26.6687 12.1953 26.2782 12.5858L16.3797 22.4843L16.3787 22.4853L14.9645 23.8995C14.5983 24.2656 14.019 24.2885 13.6262 23.9682C13.6 23.9468 13.5747 23.9239 13.5503 23.8995L12.136 22.4853L6.47919 16.8285C6.08866 16.4379 6.08866 15.8048 6.47919 15.4142L7.8934 14C8.28392 13.6095 8.91709 13.6095 9.30761 14L14.2574 18.9498L23.4497 9.75739C23.8403 9.36687 24.4734 9.36687 24.864 9.75739L26.2782 11.1716Z" fill="#313233"/>
</svg>
